<?xml version="1.0" encoding="UTF-8"?>
<svg xmlns="http://www.w3.org/2000/svg" xmlns:xlink="http://www.w3.org/1999/xlink" width="104px" height="28px" viewBox="0 0 105 28" version="1.1">
<g id="surface1">
<path style=" stroke:none;fill-rule:nonzero;fill:rgb(100%,100%,100%);fill-opacity:1;" d="M 0 0.496094 L 0 27.269531 L 14.945312 27.269531 L 14.945312 21.875 L 5.691406 21.875 L 5.691406 0.496094 Z M 0 0.496094 "/>
<path style=" stroke:none;fill-rule:nonzero;fill:rgb(100%,100%,100%);fill-opacity:1;" d="M 43.371094 13.882812 C 43.371094 6.15625 37.226562 0 29.488281 0 C 21.75 0 15.605469 6.15625 15.605469 13.882812 C 15.605469 21.609375 21.75 27.765625 29.488281 27.765625 C 37.226562 27.765625 43.371094 21.609375 43.371094 13.882812 Z M 37.53125 13.882812 C 37.53125 18.511719 34.003906 22.179688 29.488281 22.179688 C 24.972656 22.179688 21.445312 18.511719 21.445312 13.882812 C 21.445312 9.253906 24.972656 5.582031 29.488281 5.582031 C 34.003906 5.582031 37.53125 9.253906 37.53125 13.882812 Z M 37.53125 13.882812 "/>
<path style=" stroke:none;fill-rule:nonzero;fill:rgb(100%,100%,100%);fill-opacity:1;" d="M 72.558594 6.921875 C 70.394531 2.601562 65.917969 0 60.570312 0 C 52.945312 0 46.6875 6.234375 46.6875 13.882812 C 46.6875 21.53125 52.792969 27.765625 60.53125 27.765625 C 68.121094 27.765625 73.660156 22.027344 73.660156 14.53125 L 73.660156 12.390625 L 59.851562 12.390625 L 59.851562 17.210938 L 67.550781 17.210938 C 66.828125 20.269531 64.097656 22.371094 60.570312 22.371094 C 56.019531 22.371094 52.453125 18.585938 52.453125 13.882812 C 52.453125 9.140625 56.019531 5.429688 60.53125 5.429688 C 63.605469 5.429688 66.070312 6.84375 67.398438 9.445312 Z M 72.558594 6.921875 "/>
<path style=" stroke:none;fill-rule:nonzero;fill:rgb(100%,100%,100%);fill-opacity:1;" d="M 104.5 13.882812 C 104.5 6.15625 98.355469 0 90.613281 0 C 82.875 0 76.730469 6.15625 76.730469 13.882812 C 76.730469 21.609375 82.875 27.765625 90.613281 27.765625 C 98.355469 27.765625 104.5 21.609375 104.5 13.882812 Z M 98.65625 13.882812 C 98.65625 18.511719 95.128906 22.179688 90.613281 22.179688 C 86.101562 22.179688 82.574219 18.511719 82.574219 13.882812 C 82.574219 9.253906 86.101562 5.582031 90.613281 5.582031 C 95.128906 5.582031 98.65625 9.253906 98.65625 13.882812 Z M 98.65625 13.882812 "/>
</g>
</svg>
